<svg width="88" height="32" viewBox="0 0 88 32" fill="none" xmlns="http://www.w3.org/2000/svg">
<g clip-path="url(#clip0_568_1374)">
<path d="M81.6518 5.10282C80.6646 5.2501 79.315 5.87647 78.6818 6.48126C78.4083 6.74227 78.03 7.24515 77.8412 7.59856C77.5479 8.14732 77.4976 8.40048 77.4966 9.33349C77.4958 10.1408 77.5583 10.5514 77.736 10.907C78.2909 12.0171 79.4536 12.7574 81.6051 13.3704C82.9718 13.7598 83.4527 13.9947 83.7242 14.4057C84.1701 15.0804 83.273 15.8871 82.0762 15.8875C81.3552 15.8877 79.9646 15.4806 79.1545 15.0321C78.8318 14.8536 78.5212 14.756 78.4642 14.8157C78.1912 15.1009 77.0228 17.4556 77.0803 17.6044C77.1539 17.7945 78.2125 18.3186 79.1856 18.6467C80.8819 19.2188 83.3474 19.1936 84.9789 18.5877C86.7276 17.9382 87.7958 16.5231 87.9013 14.716C87.9508 13.8669 87.9147 13.6353 87.6396 13.0421C86.9881 11.6366 86.129 11.0474 83.7285 10.3595C81.9387 9.84678 81.717 9.74218 81.6218 9.36627C81.3174 8.16364 83.3472 7.77975 85.2766 8.67498C85.7511 8.89513 86.1933 9.04228 86.2593 9.00179C86.4248 8.9004 87.5383 6.68314 87.5383 6.45503C87.5383 6.19633 86.8648 5.82031 85.7239 5.44197C84.6099 5.07262 82.8413 4.92534 81.6518 5.10282Z" fill="#2F59D5"/>
<path d="M56.693 24.6359C48.0882 24.9874 37.0954 26.4958 29.4765 28.3705C27.1414 28.9451 25.3899 29.4204 25.2932 29.5056C25.2378 29.5545 25.9495 30.121 26.8747 30.7644L28.557 31.9342L30.836 31.1671C38.2577 28.6689 46.7362 26.9057 57.2762 25.6687C61.6106 25.1599 63.0165 25.018 65.7003 24.8188C67.1973 24.7076 68.5386 24.598 68.6812 24.575C69.211 24.4897 59.0026 24.5415 56.693 24.6359Z" fill="#2F59D5"/>
<path d="M43.0765 21.4179C36.5477 21.5975 28.0382 22.2846 22.2836 23.0965C16.4803 23.9154 9.06643 25.3224 8.5488 25.7029C8.38641 25.8224 8.73542 26.1487 10.5588 27.5824C11.7724 28.5366 12.8962 29.3672 13.0561 29.4283C13.2633 29.5073 13.7186 29.426 14.6401 29.1451C19.2185 27.7499 27.2404 26.055 32.9758 25.2712C34.0807 25.1202 35.5387 24.9165 36.2159 24.8183C36.8931 24.7203 37.8845 24.604 38.4191 24.5599C38.9537 24.5159 40.1493 24.3982 41.076 24.2984C42.0026 24.1985 44.2453 24 46.0597 23.8571C47.8741 23.7143 49.4077 23.5487 49.4676 23.4894C49.5275 23.43 49.5593 22.9242 49.5384 22.3654L49.5001 21.3495L48.0097 21.3364C47.19 21.3291 44.97 21.3658 43.0765 21.4179Z" fill="#2F59D5"/>
<path d="M54.8785 22.2932C54.8785 23.086 54.9098 23.2119 55.1053 23.206C56.103 23.1758 76.8144 23.3516 80.0214 23.4176C82.8603 23.4759 84.0643 23.4605 83.9743 23.367C83.7603 23.1452 77.7769 22.52 71.4028 22.0534C65.6332 21.6311 63.8317 21.5424 59.2526 21.456L54.8785 21.3735V22.2932Z" fill="#2F59D5"/>
<path fill-rule="evenodd" clip-rule="evenodd" d="M56.4008 5.22394C55.6752 5.40579 54.7089 5.92576 54.1832 6.41732L54.1796 6.4207C53.9507 6.63486 53.8259 6.75151 53.7423 6.72748C53.6422 6.69872 53.601 6.4685 53.5107 5.96281L53.5095 5.95647L53.4227 5.47095L51.7205 5.50667L50.0184 5.5424L50.048 5.9922C50.0643 6.23959 50.1086 10.3414 50.1466 15.1073C50.1845 19.8733 50.2299 23.7869 50.2476 23.8044C50.2652 23.822 51.154 23.7973 52.2227 23.7497L54.1657 23.6629L54.2007 20.8677C54.2199 19.3303 54.2856 18.0725 54.3468 18.0725C54.4079 18.0725 54.5252 18.153 54.6075 18.2512C54.9072 18.6093 56.09 18.9995 57.0797 19.0667C58.8018 19.1838 60.4539 18.5254 61.4351 17.3311C62.7302 15.7545 63.2311 14.0646 63.139 11.5825C63.0931 10.3446 63.0173 9.86945 62.7551 9.17394C62.0301 7.25124 60.9335 6.03384 59.4146 5.46529C58.6041 5.16187 57.1223 5.04325 56.4008 5.22394ZM59.0245 11.1892C58.8081 9.84581 58.3419 9.12382 57.3798 8.64176C56.5398 8.22088 55.529 8.44733 54.7892 9.22201C54.178 9.86227 54.1006 10.1985 54.1038 12.2014C54.107 14.2738 54.2728 14.8546 55.0096 15.3748C55.4691 15.6991 56.3964 15.8431 57.1387 15.7049C58.4475 15.4615 59.3606 13.2751 59.0245 11.1892Z" fill="#2F59D5"/>
<path fill-rule="evenodd" clip-rule="evenodd" d="M8.07751 0.137478C4.84146 0.806522 2.03389 2.91299 0.817705 5.58415C0.142736 7.06669 0.00211823 7.81105 4.46001e-05 9.91174C-0.00164023 11.5472 0.0434611 11.9953 0.297481 12.8676C0.718171 14.3125 1.46597 15.5123 2.70121 16.725C3.92712 17.9284 4.97599 18.5239 6.79613 19.0499C7.88194 19.3636 8.24158 19.4056 9.84178 19.4052C11.3975 19.405 11.8453 19.3555 12.9823 19.0583C14.2957 18.715 15.8659 18.0637 16.1242 17.755C16.2217 17.6386 16.0795 17.3362 15.6024 16.645C15.2418 16.1225 14.7699 15.4203 14.554 15.0845C14.3379 14.7487 14.1325 14.474 14.0974 14.474C14.0622 14.474 13.6108 14.6757 13.0941 14.922C10.6247 16.0999 7.8682 15.7222 6.0526 13.9574C4.6678 12.6113 4.13461 10.4105 4.65911 8.20496C5.0093 6.73193 5.62284 5.79466 6.82257 4.90046C8.61665 3.56314 11.2319 3.4259 13.4994 4.55001C13.8716 4.73456 14.1981 4.85973 14.2249 4.82838C14.2516 4.79689 14.7303 4.1119 15.2885 3.30599L16.3036 1.8408L15.924 1.54022C15.4065 1.13038 14.0949 0.521221 13.1848 0.268048C12.1503 -0.0199519 9.20336 -0.0951326 8.07751 0.137478ZM36.2158 5.21405C35.4315 5.37315 34.4519 5.86381 34.0043 6.32184C33.5495 6.78719 33.3651 6.86789 33.3638 6.60251C33.3634 6.51422 33.3024 6.22507 33.2281 5.95994L33.0932 5.47801H31.4144H29.7357V12.1641V18.8502L31.7121 18.8147L33.6886 18.7792L33.7534 14.2813C33.8267 9.19219 33.8284 9.18371 34.8607 8.68815C35.5341 8.36481 36.0383 8.36661 36.58 8.6942C37.3554 9.16289 37.3822 9.3522 37.3822 14.3414V18.8435H39.3176C41.0503 18.8435 41.2594 18.82 41.3158 18.6186C41.3504 18.4948 41.3819 16.4659 41.3855 14.1097C41.3921 9.96906 41.4016 9.81087 41.6685 9.38279C42.0079 8.83814 42.7728 8.43383 43.4641 8.43383C43.8853 8.43383 44.0695 8.5193 44.4396 8.88634L44.8959 9.33883L44.93 14.0591L44.964 18.7792H46.908H48.8521V13.5102V8.24105L48.4851 7.45379C48.2834 7.02083 47.9043 6.45972 47.6427 6.20706C46.0434 4.66207 43.0595 4.80369 41.2501 6.51036L40.6999 7.02944L40.2242 6.47747C39.3234 5.43252 37.6849 4.91602 36.2158 5.21405ZM63.8749 5.65279C63.8377 5.74905 63.8253 8.13452 63.8473 10.954C63.8861 15.9089 63.8971 16.1041 64.176 16.7887C64.7707 18.2482 66.099 19.1206 67.8577 19.2066C69.3284 19.2785 70.7782 18.8091 71.7807 17.9362L72.2305 17.5446L72.2703 18.1619L72.3101 18.7792H74.1245H75.9389L75.9725 12.1253L76.0061 5.47132L74.0285 5.5068L72.0509 5.54227L71.9861 9.976C71.9417 13.0068 71.8736 14.4911 71.7704 14.6668C71.5347 15.0685 70.9206 15.6007 70.5196 15.7509C69.8488 16.0023 68.936 15.9215 68.5196 15.574C67.8877 15.0467 67.8388 14.6374 67.8388 9.86471V5.47801H65.8907C64.3674 5.47801 63.9278 5.51618 63.8749 5.65279Z" fill="#2F59D5"/>
<path fill-rule="evenodd" clip-rule="evenodd" d="M20.6636 5.17259C19.8907 5.32 18.0042 5.89613 17.3382 6.18824C16.653 6.48858 16.6176 6.52662 16.6897 6.88401C16.7825 7.34371 17.9214 9.46174 18.0759 9.46174C18.1366 9.46174 18.3792 9.34981 18.6149 9.21307C18.8507 9.07634 19.3935 8.83293 19.8211 8.67216C20.8393 8.28931 22.5856 8.25269 23.2289 8.6007C23.748 8.88151 24.1807 9.53962 24.1331 9.97579C24.0984 10.2934 24.0867 10.2963 23.126 10.2328C22.5914 10.1975 21.6798 10.1754 21.1001 10.1836C18.0096 10.2276 15.7113 12.0936 15.6959 14.5715C15.6815 16.8824 17.2091 18.5471 19.7519 18.9912C21.2167 19.2471 23.0231 18.7183 24.0476 17.7336L24.5156 17.2839L24.7604 18.0315L25.0052 18.779L26.6796 18.8152C27.6004 18.8351 28.4019 18.8037 28.4604 18.7456C28.5191 18.6874 28.4812 18.2375 28.3761 17.7457C28.2345 17.0834 28.1844 15.933 28.1827 13.3121C28.1804 9.544 28.0994 8.87984 27.4957 7.68131C27.0598 6.81577 26.0266 5.95987 24.9181 5.54593C24.1228 5.2488 23.7262 5.18467 22.478 5.151C21.6583 5.1289 20.8418 5.13866 20.6636 5.17259ZM22.9854 15.4453C23.9395 14.7896 24.5374 13.0612 23.8712 12.8841C23.4043 12.7601 21.4125 12.8109 20.9876 12.9579C20.0048 13.2975 19.535 14.2419 19.9349 15.0736C20.3657 15.9692 21.9431 16.1615 22.9854 15.4453Z" fill="#2F59D5"/>
</g>
<defs>
<clipPath id="clip0_568_1374">
<rect width="88" height="32" fill="white"/>
</clipPath>
</defs>
</svg>
